#!OML:ASF I:\Actors\actors\Patient Classification 1\Patient 1\Session 1\Subject1.ASF
:FULLY-SPECIFIED
:DEGREES
1019
root 0.652312 17.4836 9.47501 10.9693 3.77455 -8.25355
lowerback -0.879184 0.870772 5.79182
upperback -7.80382 1.51383 2.07832
thorax -7.60847 0.45272 -1.13588
lowerneck -13.513 -8.10708 -7.12528
upperneck 18.1403 -11.5906 9.10114
head 8.86077 -5.08681 2.82252
rclavicle -2.26242e-014 1.31198e-014
rhumerus -64.7318 3.26217 -84.0982
rradius 108.854
rwrist -14.5273
rhand 46.6083 -40.8131
rfingers 7.12502
rthumb 67.5904 -402.984
lclavicle -2.26242e-014 1.31198e-014
lhumerus -51.2006 15.7914 75.4561
lradius 40.4559
lwrist -6.17829
lhand -29.6749 -19.7397
lfingers 7.12502
lthumb -3.00347 10.2189
rfemur -3.69245 25.1897 25.0219
rtibia 1.3448
rfoot -15.2422 -30.8863
rtoes 11.0381
lfemur 3.76927 -52.8069 -11.6896
ltibia -5.07971
lfoot -25.2289 56.791
ltoes 12.9801
1020
root 0.658752 17.485 9.47411 10.7734 3.79098 -8.31468
lowerback -0.784396 0.781736 5.9796
upperback -7.73224 1.40448 2.08442
thorax -7.59121 0.387643 -1.22918
lowerneck -13.5965 -7.92181 -7.02953
upperneck 18.1475 -11.3335 9.03658
head 8.84532 -4.96345 2.81865
rclavicle 1.85118e-015 -1.78906e-015
rhumerus -65.8069 1.83524 -83.6856
rradius 106.087
rwrist -12.6352
rhand 43.653 -39.5777
rfingers 7.12502
rthumb 65.3453 -406.169
lclavicle 1.85118e-015 -1.78906e-015
lhumerus -51.6463 15.5477 75.7655
lradius 40.831
lwrist -5.78967
lhand -29.0826 -20.3485
lfingers 7.12502
lthumb -2.43149 9.61739
rfemur -3.45568 25.3166 25.1956
rtibia 1.38333
rfoot -15.4339 -31.0055
rtoes 11.3234
lfemur 4.07955 -52.5873 -11.8742
ltibia -5.12712
lfoot -24.8532 56.5927
ltoes 12.8224
1021
root 0.666266 17.4867 9.47438 10.5888 3.80486 -8.34248
lowerback -0.777962 0.690693 6.12382
upperback -7.65325 1.28242 2.07803
thorax -7.51588 0.320478 -1.30948
lowerneck -13.629 -7.71919 -6.73729
upperneck 18.182 -11.06 8.78601
head 8.80548 -4.83848 2.72454
rclavicle -4.09993e-015 3.91606e-014
rhumerus -66.7051 0.664531 -83.2838
rradius 103.148
rwrist -10.7187
rhand 41.7067 -38.4933
rfingers 7.12502
rthumb 63.794 -407.558
lclavicle -4.09993e-015 3.91606e-014
lhumerus -52.1029 15.3059 76.0449
lradius 41.0706
lwrist -5.75944
lhand -28.8759 -21.1482
lfingers 7.12502
lthumb -2.2319 8.81986
rfemur -3.22718 25.3921 25.3259
rtibia 1.43197
rfoot -15.5758 -31.0831
rtoes 11.4146
lfemur 4.37362 -52.2906 -12.0805
ltibia -5.1937
lfoot -24.487 56.3328
ltoes 12.6421
1022
root 0.673215 17.4836 9.46949 10.6381 3.63585 -8.27098
lowerback -0.947606 0.655326 6.12463
upperback -7.65362 1.2171 2.03289
thorax -7.42082 0.288631 -1.35176
lowerneck -13.6469 -7.49295 -6.37011
upperneck 18.2496 -10.7641 8.48808
head 8.7668 -4.70228 2.60562
rclavicle -5.42931e-015 4.01545e-014
rhumerus -67.5016 -0.252514 -83.0487
rradius 100.263
rwrist -9.10382
rhand 38.9852 -38.2602
rfingers 7.12502
rthumb 61.5488 -410.305
lclavicle -5.42931e-015 4.01545e-014
lhumerus -52.5089 15.0988 76.2799
lradius 41.2547
lwrist -5.75514
lhand -28.6034 -21.168
lfingers 7.12502
lthumb -1.96871 8.80268
rfemur -3.37491 25.4029 25.1542
rtibia 1.53233
rfoot -15.5532 -30.9175
rtoes 11.4295
lfemur 4.23539 -51.8312 -12.0654
ltibia -5.25651
lfoot -23.9412 56.129
ltoes 12.2378
1023
root 0.680243 17.4832 9.46248 10.607 3.46244 -8.19317
lowerback -0.999019 0.61341 6.13686
upperback -7.63844 1.15264 1.98898
thorax -7.37776 0.255321 -1.40075
lowerneck -13.7226 -7.28067 -6.14703
upperneck 18.3725 -10.4909 8.33555
head 8.7783 -4.56902 2.55311
rclavicle 1.15419e-014 -2.52457e-014
rhumerus -68.1367 -0.907947 -82.9633
rradius 97.4732
rwrist -7.99689
rhand 34.3823 -37.9843
rfingers 7.12502
rthumb 57.5978 -414.061
lclavicle 1.15419e-014 -2.52457e-014
lhumerus -52.8061 14.9285 76.4875
lradius 41.3465
lwrist -5.66894
lhand -28.0874 -20.6608
lfingers 7.12502
lthumb -1.47033 9.31391
rfemur -3.40106 25.4602 25.0167
rtibia 1.5661
rfoot -15.5001 -30.8074
rtoes 11.6377
lfemur 4.12495 -51.1116 -12.0663
ltibia -5.33879
lfoot -22.7753 55.7466
ltoes 11.3735
1024
root 0.688185 17.4825 9.45755 10.5649 3.26672 -8.20961
lowerback -1.07403 0.608818 6.26477
upperback -7.59783 1.14044 1.97627
thorax -7.29025 0.24335 -1.48373
lowerneck -13.8855 -7.09999 -6.06618
upperneck 18.5577 -10.2485 8.25988
head 8.84266 -4.44838 2.54216
rclavicle 8.41108e-015 8.74653e-015
rhumerus -68.5038 -1.41836 -82.9317
rradius 94.6465
rwrist -7.3712
rhand 29.3924 -37.1316
rfingers 7.12502
rthumb 53.1599 -416.522
lclavicle 8.41108e-015 8.74653e-015
lhumerus -52.975 14.8102 76.6841
lradius 41.2522
lwrist -5.76823
lhand -27.5432 -20.4034
lfingers 7.12502
lthumb -0.944735 9.57428
rfemur -3.41123 25.4598 24.9942
rtibia 1.6115
rfoot -15.367 -30.6453
rtoes 11.5265
lfemur 4.13799 -50.6066 -12.0852
ltibia -5.37449
lfoot -22.1299 55.4865
ltoes 11.0186
1025
root 0.696746 17.4805 9.45238 10.5633 3.01526 -8.2146
lowerback -1.1984 0.630096 6.38777
upperback -7.57047 1.15851 1.95619
thorax -7.18625 0.246806 -1.5726
lowerneck -13.9959 -6.90507 -6.00003
upperneck 18.6815 -9.9832 8.20019
head 8.87696 -4.3195 2.54391
rclavicle -6.4605e-015 4.45278e-014
rhumerus -68.6128 -1.97606 -82.7622
rradius 91.9391
rwrist -6.05783
rhand 27.9954 -37.923
rfingers 7.12502
rthumb 51.896 -418.09
lclavicle -6.4605e-015 4.45278e-014
lhumerus -53.0679 14.7486 76.8235
lradius 40.9659
lwrist -6.02909
lhand -27.1432 -20.4123
lfingers 7.12502
lthumb -0.558436 9.56674
rfemur -3.5109 25.3485 24.9204
rtibia 1.71252
rfoot -15.1023 -30.3589
rtoes 10.9014
lfemur 4.22558 -50.4682 -12.2128
ltibia -5.35004
lfoot -22.3103 55.4819
ltoes 11.3767
1026
root 0.70395 17.4794 9.44409 10.5057 2.69908 -8.16021
lowerback -1.20795 0.654478 6.41779
upperback -7.57334 1.18889 1.9261
thorax -7.1808 0.258617 -1.62212
lowerneck -13.936 -6.69698 -5.85731
upperneck 18.7448 -9.71012 8.09891
head 8.85294 -4.19226 2.5252
rclavicle 8.07563e-015 -1.17283e-014
rhumerus -68.5905 -2.43609 -82.6774
rradius 88.9779
rwrist -5.2142
rhand 26.3399 -38.2026
rfingers 7.12502
rthumb 50.3884 -419.219
lclavicle 8.07563e-015 -1.17283e-014
lhumerus -53.1669 14.7368 76.8861
lradius 40.5367
lwrist -6.40397
lhand -26.8955 -20.4954
lfingers 7.12502
lthumb -0.319143 9.48413
rfemur -3.57917 25.174 24.796
rtibia 1.8436
rfoot -14.8015 -29.9869
rtoes 10.1014
lfemur 4.40596 -50.2409 -12.4696
ltibia -5.34149
lfoot -22.6544 55.4251
ltoes 11.8449
1027
root 0.709688 17.4797 9.43548 10.4075 2.37032 -8.16161
lowerback -1.17616 0.684044 6.46626
upperback -7.58586 1.23211 1.9156
thorax -7.20925 0.275224 -1.66241
lowerneck -13.6582 -6.51788 -5.58493
upperneck 18.5855 -9.45407 7.80607
head 8.69853 -4.09392 2.42422
rclavicle 1.68967e-015 2.10712e-014
rhumerus -68.4189 -2.77253 -82.6829
rradius 85.7234
rwrist -4.43004
rhand 22.551 -37.3657
rfingers 7.12502
rthumb 46.9037 -420.074
lclavicle 1.68967e-015 2.10712e-014
lhumerus -53.2795 14.7809 76.8748
lradius 40.0443
lwrist -6.9275
lhand -26.6153 -20.4741
lfingers 7.12502
lthumb -0.0485636 9.50561
rfemur -3.58803 25.0706 24.7648
rtibia 1.95172
rfoot -14.6019 -29.6502
rtoes 9.52527
lfemur 4.59678 -49.8395 -12.6482
ltibia -5.35691
lfoot -22.8883 55.2598
ltoes 12.2133
1028
root 0.715437 17.4795 9.42643 10.3611 2.06469 -8.19635
lowerback -1.20285 0.702409 6.54848
upperback -7.61724 1.25632 1.89017
thorax -7.22531 0.279725 -1.7354
lowerneck -13.4843 -6.34596 -5.39342
upperneck 18.5873 -9.23921 7.69244
head 8.6361 -3.99597 2.38781
rclavicle -1.34428e-014 7.15625e-015
rhumerus -68.085 -3.08481 -82.7046
rradius 82.3395
rwrist -2.71283
rhand 18.8104 -36.7091
rfingers 7.12502
rthumb 43.4253 -420.803
lclavicle -1.34428e-014 7.15625e-015
lhumerus -53.3672 14.9032 76.7053
lradius 39.5016
lwrist -7.53633
lhand -26.217 -20.177
lfingers 7.12502
lthumb 0.336116 9.80252
rfemur -3.64135 25.1011 24.752
rtibia 2.04094
rfoot -14.4809 -29.4144
rtoes 9.20794
lfemur 4.67273 -49.5125 -12.7035
ltibia -5.34771
lfoot -23.0406 55.1555
ltoes 12.4478
